<svg width="51.222mm" height="69.783mm" version="1.1" viewBox="0 0 51.222 69.783" xmlns="http://www.w3.org/2000/svg">
 <g transform="translate(-59.122 -50.999)">
  <g transform="matrix(1 0 0 1.0046 -96.634 36.655)">
   <path d="m155.76 14.278v69.464l25.611-14.494 25.611 14.494v-69.463z" fill="#cedf4a" stroke-width=".5001"/>
   <g transform="matrix(.40073 0 0 .40073 199.48 4.7394)" fill="#2da000">
    <path d="m-66.184 98.138c-2.8374-1e-3 -5.7912 0.3571-8.8093 0.91358v29.056c16.297-3.7116 23.077 4.6836 29.787 13.166 6.7103-8.4826 13.489-16.878 29.786-13.166v-29.056c-12.072-2.2259-23.117-1.2813-29.786 13.166-5.0019-10.836-12.465-14.076-20.978-14.08z" stroke-width=".19894"/>
    <path d="m-60.889 68.997c-2.1211-9.4e-4 -4.3294 0.26712-6.5856 0.68313v21.721c12.183-2.7747 17.251 3.5013 22.268 9.8426 5.0164-6.3413 10.084-12.617 22.268-9.8426v-21.721c-9.025-1.664-17.282-0.95792-22.268 9.8426-3.7393-8.1004-9.3188-10.523-15.682-10.526z" stroke-width=".14873"/>
    <path d="m-55.42 49.628c-1.3814-6.6e-4 -2.8197 0.18586-4.2891 0.47582v15.14c7.9348-1.934 11.235 2.4407 14.502 6.8606 3.2671-4.4199 6.5677-8.7946 14.502-6.8606v-15.14c-5.8778-1.1598-11.255-0.66741-14.502 6.8606-2.4353-5.646-6.069-7.3345-10.213-7.3364z" stroke-width=".1002"/>
   </g>
  </g>
 </g>
</svg>
