<svg width="73.337mm" height="92.925mm" version="1.1" viewBox="0 0 73.337 92.925" xmlns="http://www.w3.org/2000/svg">
 <g transform="translate(-61.946 -66.322)">
  <text x="61.128956" y="159.1227" fill="#ffffff" font-size="10.199px" stroke-width=".84995" xml:space="preserve"><tspan x="61.128956" y="159.1227" fill="#ffffff" font-family="'Segoe UI'" font-weight="bold" stroke-width=".84995">NATURSKOLAN</tspan></text>
  <path d="m73.003 66.322v69.783l25.611-14.561 25.611 14.561v-69.782zm21.518 10.396c1.6608 8e-4 3.1169 0.6809 4.0928 2.9538 1.3012-3.0306 3.4566-3.229 5.8121-2.7621v6.0947c-3.1797-0.77857-4.5028 0.98276-5.8121 2.7621-1.3092-1.7794-2.6318-3.5407-5.8115-2.7621v-6.0947c0.58886-0.11673 1.1652-0.19198 1.7188-0.19172zm-2.1916 7.798c2.55 1e-3 4.7859 0.97647 6.2844 4.2375 1.998-4.348 5.3069-4.6324 8.9235-3.9626v8.7442c-4.8823-1.117-6.9132 1.4097-8.9235 3.9625-2.0102-2.5528-4.0412-5.0796-8.9235-3.9625v-8.7442c0.90415-0.16748 1.7891-0.2753 2.6391-0.27492zm14.691 11.731c1.137-5.3e-4 2.3206 0.14391 3.53 0.36793v11.697c-6.5309-1.4942-9.2472 1.8856-11.936 5.3004-2.689-3.4148-5.4058-6.7946-11.937-5.3004v-11.697c1.2095-0.22402 2.393-0.36782 3.53-0.36742 3.4111 2e-3 6.4023 1.3058 8.4067 5.6679 2.0044-4.3621 4.9952-5.6668 8.4062-5.6684z" fill="#fff" stroke-width=".50125"/>
 </g>
</svg>
