<svg xmlns="http://www.w3.org/2000/svg" width="277.179" height="351.213" viewBox="0 0 73.337 92.925"><path d="M61.955 159.123H63.2v-5.518l-.122.051 3.6 5.467h1.469v-7.078H66.89l-.01 5.578.163-.05-3.59-5.528h-1.499zm7.007 0h1.397l2.09-6.395h-.285l2.07 6.395h1.46l-2.459-7.078h-1.683zm1.662-1.765h3.386l-.183-1.173h-3.02zm7.415 1.765h1.305v-5.926h2.285v-1.152h-5.854v1.152h2.264zm7.16.102c1.784 0 2.957-1.112 2.957-2.815v-4.365h-1.295v4.518c0 .958-.56 1.52-1.51 1.52-1.05 0-1.662-.633-1.662-1.714v-4.324h-1.316v4.426c0 1.693 1.082 2.754 2.826 2.754zm4.446-.102h1.316v-5.926h1.142c.837 0 1.326.418 1.326 1.112 0 .673-.408 1.07-1.152 1.07h-1.734v1.112h1.56c1.612 0 2.683-.979 2.683-2.376 0-1.305-.949-2.07-2.51-2.07h-2.63zm4.019 0h1.57l-1.937-3.182h-1.459zm4.498.102c1.733 0 2.774-.847 2.774-2.183 0-2.55-3.733-1.662-3.733-3.09 0-.55.5-.847 1.377-.847.591 0 1.234.112 1.733.306l.378-1.05c-.592-.265-1.336-.408-2.03-.408-1.693 0-2.825.867-2.825 2.193 0 2.417 3.713 1.631 3.713 3.07 0 .51-.45.836-1.326.836a5.85 5.85 0 0 1-2.122-.439l-.377 1.06c.755.338 1.622.552 2.438.552zm7.996-.102h1.754l-3.11-3.947.04.295 2.917-3.426h-1.601l-2.826 3.386zm-4.08 0h1.336v-7.078h-1.336zm9.658.092c2.122 0 3.54-1.47 3.54-3.693 0-2.141-1.377-3.57-3.438-3.57-2.1 0-3.498 1.47-3.498 3.683 0 2.152 1.357 3.58 3.396 3.58zm.102-1.153c-1.285 0-2.131-1-2.131-2.54 0-1.448.805-2.417 2.03-2.417 1.305 0 2.172 1.01 2.172 2.53 0 1.468-.826 2.427-2.07 2.427zm4.733 1.06h4.365v-1.162h-3.05v-5.915h-1.315zm4.6 0h1.397l2.09-6.394h-.285l2.07 6.395h1.459l-2.458-7.078h-1.683Zm1.662-1.764h3.386l-.184-1.173h-3.019zm5.895 1.765h1.244v-5.518l-.122.051 3.6 5.467h1.469v-7.078h-1.255l-.01 5.578.163-.05-3.59-5.528h-1.5z" aria-label="NATURSKOLAN" style="font-weight:700;font-size:10.199px;font-family:&quot;Segoe UI&quot;;fill:#fff;stroke-width:.84995" transform="translate(-61.946 -66.322)"/><path fill="#fff" d="M11.057 0v69.783l25.611-14.561 25.611 14.561V.001zm21.518 10.396c1.66 0 3.117.68 4.093 2.954 1.301-3.03 3.456-3.23 5.812-2.762v6.094c-3.18-.778-4.503.983-5.812 2.763-1.31-1.78-2.632-3.541-5.812-2.763v-6.094a8.89 8.89 0 0 1 1.72-.192zm-2.192 7.798c2.55.001 4.786.976 6.285 4.238 1.998-4.348 5.307-4.633 8.923-3.963v8.744c-4.882-1.117-6.913 1.41-8.923 3.963-2.01-2.553-4.041-5.08-8.924-3.963V18.47c.904-.168 1.79-.275 2.64-.275zm14.691 11.731c1.137 0 2.321.144 3.53.368V41.99c-6.53-1.494-9.247 1.886-11.936 5.3-2.689-3.414-5.405-6.794-11.937-5.3V30.293c1.21-.224 2.393-.368 3.53-.367 3.412.002 6.403 1.305 8.407 5.667 2.005-4.362 4.995-5.666 8.406-5.668z"/></svg>