<svg width="201.886" height="109.364" viewBox="0 0 53.416 28.936" xmlns="http://www.w3.org/2000/svg">
  <defs>
    <clipPath clipPathUnits="userSpaceOnUse" id="prefix__a">
      <path d="M59.055 98.977h151.417v82.204H59.055z" />
    </clipPath>
  </defs>
  <g clip-path="url(#prefix__a)" transform="matrix(.35278 0 0 -.35278 -20.834 63.917)">
    <path
      d="M185.623 153.93s.438-1.322.674-1.483c.236-.161.557-.334.691-.154.135.18.441.956.577 1.1.137.144 1.35 1.083 1.35 1.083.652-.529-.367-.706.017-1.019.385-.314.977-.124 1.077.146.104.27.402.616.402.616s.329-.32.354-.874c.025-.555-.232-1.137.079-1.088.311.05 1.236-.19 1.254.015.02.207.702.238 1.208-.176.505-.412 1.336-1.11 1.928-.955.225.058.508.007.784-.096l.025.01s.71.593.982.88c.273.289.573 2.425.97 3.053.904 1.43 1.943 1.162 3.05 1.944 1.106.78 1.144 1.192 1.539 1.27.396.078.907.165 1.016 1.477.111 1.312.459 2.425 1.694 2.847 1.237.422 1.667.987 1.258 1.206-.41.218-.881.542.007 1.077.89.537 1.842 2.12 2.63 2.347.79.228 1.062.517.983.992-.08.475.154 1.576.154 1.576l-.796-.08.946 1.154s-.104 1.644-.584 2.116c-.476.47-1.814.967-1.992 1.135-.18.168.433.49.186.91-.247.42-.1.92-.41 1.446-.31.526-.164 1.023-.288 1.308-.13.285.14.646-.223 1.055-.36.41-.311.601.086.604.402.004.383.986.383.986l-1.891.775-.531.048-.06-1.14-2.164-1.62-1.685-.292-.498-.367.247-.402-.166-.397-2.046-.19-1.63 2.223-1.963.777-.297.843-1.133.155-1.256-.917-1.083-1.262-3.135-1.32-1.01 2.054-4.318-.401-3.422-1.924-1.291.147-.985-.341-1.107-2.546-1.336-.766-2.673-.197-1.652-.669-1.83-.575-2.294-.362-.708-1.353-1.076-.454-2.215.008-1.981.914-1.595-1.313-1.72-1.064-4.292-2.869s-.785-.265-1.064-.406c-.28-.139-1.02-.789-1.02-.789l-4.452-1.233-2.637-.972-.007-1.077.315-.674-1.808-1.633-.1-.308-2.653-.601-2.033 1.948-1.453.559-2.335-.125-3.377-1.01-1.474-.223-.816-.863-2.259-.527-.771-.598-1.182-1.606s-1.35-.434-1.625-.647c-.275-.214-.695-1-.695-1l-1.57-.605-1.244-1.5-1.12-1.711-5.295-2.729-.365-.742-.193-.763-.087-.603.689-.08-.1-.306-.317-1.778-.547-.502-3.376-1.085-1.913.661-.968-1.287-1.877-2.605-1.429-1.186-.844-.271-.991-.768-1.178-.454-3.12-.427-.251.495-1.712-.025-.089-.529-.995-.695-1.766-.068-.603-.543-1.897-2.162-3.899-1.49h-.542l-.396-.077-.156.3 1.29 1.116-.202.647-.06.05-1.132-.227-1.072-.871-.206-.503-.98-.378-1.336-1.38-.934-.763-.817-.25-.092-.455.852-.527.682.068.195.114-.885-.61-.375-.559-.719.133-1.154-.36.088-.659.523-.207-.593-.116-.57-.02-.236-.452.51-.525 1.206.44 1.145.542.806 1.085.672.291.382-.24-.76-.245-.258-.582-.691-.499-1.094-.39-.435-.488-1.92-.42-.273-.285.167-.522-.533-.222-.061-.507-.255-.657-.087-.566-.73-.26-1.054-.7.05-.425.878.146-.841-.959-.61-.396-.463-1.087-.67-.942-.698-.925.153-.225.268-.867-.843-.882-.003-.576.36-.373.338.108-.379-.446-.119-.515-.866-.402-.695.225-.584.277-.361-.204-.259.03-.14-.646-.242-.34-.093-.457-.585-.3-.328.933-.223.479-.487.045.223-.518-.442-.304-.434-.49-.288-1.181-.767-1.285.047-.424-.597-.654.146-.69-.5-.312-1.03.045-.941-.616-.187-.26-.607.18-.368-.094.798-.57.137-.505.539.073.19-.39.825-.585 1.094-.186 1.613-.321.262-.103.66-1.327 1.003-.066.215.282.888-.076.758.28.579 1.063.196.687 1.137.692 2.332.2 1.217.215-.319-.516.294-.193.66-.064.73.874 1.779-.805.77-.592.605-.142-.552-.391.23-.051 1.02.14.76-.369.624-.511-.362-.204-.313-.013.5-.34.07-.253.815.25 1.53.228.794.73 1.956.905 2.487.548 2.055 1.212 1.496.97.609-.181.387.262.298.96.886.573 1.867.373.801.546.321 1.093 1.802.552.177.483.141 1.26 1.58-.845.512.666-.023.516.654.012.468.363.106.81.603-.683.493.459.28 1.33.576-.128 2.062.487.215.894-2.41 1.593 1.14.306 1.04-.62 1.09-1.34.793.082.787.3.68-.506.972-.05 1.185.305 1.411.33-.035.776 1.007-.177.632.528.04-.236-.761-.822.266-.827 1.066.405 2.167.033.86-.061.712.629-.384.891.945-.071-.087-.566.502-.379.444.27-.043-.303 1.084.035.537.073.1.959-.116.638-.615.328 1.073.257 2.125-.268.556.317.652.085.468-.25.444.267.155.35.648.196-.049.422.853 1.925-.711.56-.168.56.852.699.666.4.672 1.519-1.515-1.175-.361.408c.103.216.232.525.232.525l.209 1.656-.501.303-.965-.097-.277-.177.069.36.735.762-.936.5-.156.262-.132.396-.238.198 1.194.121.235.452.454 1.309.763.17.235.451 1.428 1.222.358-.334.296.382.365.744.096.38.594.117.48.754.306.773 1.027-.006.665.439.384-.278-.11-.699.235-.161.505.2.261.509-.003.687 1.435 1.075 1.334.765.52.444 1.301.28.019.206-.09.735.602.542.236-.16.816.248-.203.686.559.243-.2-.578.387-.35 1.286-.039 1.304.17 1.312.635.858 2.427-.437-2.255 1.158.21.355.351.423.136-.032-.523.828-.009.734.8-.396.498.951-.22 1.662.52 1.385.273.156-.302.19-.39 2.117.53 1.133.765.907-.483.591.19.201.615.104-.994.706.128 1.465.409.936.149 1.024-.582.827.064-.032.666.278.14.049-.385.77-.016.954-.22 2.411.877 1.612.943 2.424.654 1.707.136 1.28 1.337-.337 1.08.548.5.556.355-.254.568s.404-.144.68.07c.275.214.738.687 1.311.67.57-.016 1.702.21 1.753.327.053.117.293.42.607.47.31.05.711.668.711.668s.165.127.395.075c.233-.05.95-.181.908.13-.043.311-.643.957-.332 1.006.311.05.843-.34 1.078-.467.233-.123.601-.031 1.028-.006.427.023.6-.033.678.106.081.138.027.671.233.562.204-.11 1.153-.256 1.197.009.033.19-.106.911-.176 1.218M113.18 104.397l-.713.596-1.536-.118-.865.173-.55-.427.027.634-1.6.061-1.798-.627s-1.356-.287-1.866-.375c-.51-.09-1.336-.73-1.336-.73l-.53-.87-1.292-.466-.455-1.272-.388-.226.292-.155-1.24-.35-.664-.437.98-.236 1.075.22.083.677 2.154.293 1.313.021.214.318 2.211.337-.015.294-.026.594.78.375.87.979.732.187 2.513-.043.548.502 1.081.071M96.389 105.57l.634-.123s-.494-.46-.717-.555c-.223-.097-.97-.905-2.118-1.106-1.019-.178-4.472-2.014-5.42-2.519-.946-.503-3.116-1.725-4.073-2.008-.957-.283-.633.12-.633.12l2.964 2.531c.953.356 3.826 1.204 4.897 1.498 1.071.294 2.397 1.246 3.12 1.653a4.512 4.512 0 001.346.508"
      fill="#b1b869" />
    <path
      d="M132.349 127.55c10.48 0 18.98 7.82 18.98 17.464 0 9.646-8.5 17.466-18.98 17.466-10.486 0-18.985-7.82-18.985-17.466 0-9.645 8.5-17.465 18.985-17.465"
      fill="#d22027" />
    <path
      d="M148.253 158.259h1.105v-6.593h.03l3.222 3.729h1.335l-2.348-2.723 2.654-4.65h-1.304l-2.116 3.77-1.473-1.56v-2.21h-1.105zM160.233 152.006c-2.53-.412-3.773-1.092-3.773-2.113 0-.681.706-1.135 1.319-1.135.799 0 1.811.54 2.454 1.22zm-4.647 1.97c.507.851 1.49 1.56 2.992 1.56 1.349 0 2.76-.595 2.76-2.211v-3.715c0-.808.078-1.206.185-1.588h-1.136l-.122 1.02c-.553-.567-1.442-1.162-2.639-1.162-1.227 0-2.269.68-2.269 2.027 0 1.617 1.335 2.425 4.876 3.006v.397c0 .978-.69 1.347-1.64 1.347-1.228 0-1.826-.652-2.042-1.149zM165.142 148.021h-1.103v10.237h1.103zM172.323 152.006c-2.53-.412-3.773-1.092-3.773-2.113 0-.681.705-1.135 1.318-1.135.8 0 1.812.54 2.455 1.22zm-4.647 1.97c.506.851 1.489 1.56 2.991 1.56 1.35 0 2.761-.595 2.761-2.211v-3.715c0-.808.077-1.206.184-1.588h-1.135l-.122 1.02c-.553-.567-1.442-1.162-2.64-1.162-1.226 0-2.269.68-2.269 2.027 0 1.617 1.335 2.425 4.877 3.006v.397c0 .978-.69 1.347-1.641 1.347-1.228 0-1.826-.652-2.041-1.149zM148.02 140.974v-.878h1.304v-5.418c0-.935.506-1.22 1.702-1.22.645 0 1.09.058 1.29.115v.836a6.648 6.648 0 00-.982-.071c-.645 0-.906.17-.906.51v5.248h1.842v.878h-1.842v2.424h-1.104v-2.424zM158.988 133.6v.993h-.03c-.63-.652-1.457-1.135-2.363-1.135-1.18 0-2.3.568-2.3 2.156v5.36h1.105v-5.332c0-.978.505-1.305 1.302-1.305.83 0 1.78.624 2.286 1.121v5.516h1.105V133.6zM162.609 133.6h1.105v4.084c.521 1.517 1.242 2.354 2.623 2.382v1.021c-1.318 0-1.98-.567-2.593-1.574h-.03v1.46h-1.105zM170.893 133.6h-1.472l-2.455 7.374h1.12l2.024-6.097h.03l2.027 6.097h1.12zM177.309 142.449c.475 0 .858.354.858.794 0 .44-.383.794-.858.794-.477 0-.86-.355-.86-.794 0-.44.383-.794.86-.794m.058 2.21c.844 0 1.534-.637 1.534-1.416 0-.78-.69-1.419-1.534-1.419-.843 0-1.532.639-1.532 1.419s.69 1.417 1.532 1.417m1.763-7.075c-2.529-.411-3.772-1.091-3.772-2.114 0-.68.706-1.133 1.319-1.133.799 0 1.81.539 2.453 1.22zm-4.647 1.97c.508.852 1.49 1.56 2.993 1.56 1.348 0 2.76-.595 2.76-2.212v-3.715c0-.808.077-1.205.185-1.588h-1.137l-.122 1.021c-.553-.566-1.441-1.163-2.638-1.163-1.227 0-2.27.68-2.27 2.029 0 1.616 1.335 2.424 4.876 3.005v.398c0 .978-.69 1.346-1.64 1.346-1.228 0-1.826-.652-2.04-1.148zM182.429 140.974h1.105v-1.462h.03c.613 1.008 1.275 1.576 2.593 1.576v-1.022c-1.38-.028-2.102-.865-2.623-2.382v-4.083h-1.105zM192.618 139.216c-.598.61-1.352 1.02-2.01 1.02-1.289 0-2.256-.78-2.256-3.006 0-1.87.874-2.893 2.256-2.893.705 0 1.226.284 2.01.994zm1.103 4.622v-8.621c0-.539-.03-1.078.062-1.616h-1.013l-.152.723c-.37-.468-1.152-.866-2.102-.866-1.412 0-3.268.88-3.268 3.83 0 2.864 1.856 3.827 3.206 3.827.752 0 1.489-.354 2.101-.822l.063-.029v3.574zM196.39 135.472c.522-.694 1.288-1.135 2.285-1.135 1.197 0 1.718.596 1.718 1.221 0 1.872-4.724.878-4.633 3.572.046 1.276 1.106 2 2.639 1.985 1.042-.013 2.195-.538 2.73-1.29l-.767-.624c-.612.696-1.197 1.035-2.054 1.035-.936 0-1.442-.438-1.442-1.091 0-1.604 4.632-.78 4.632-3.53 0-1.433-1.35-2.157-2.793-2.157-1.241 0-2.454.497-3.19 1.404zM131.264 121.053c.522-.694 1.29-1.134 2.286-1.134 1.196 0 1.718.596 1.718 1.22 0 1.872-4.724.878-4.633 3.572.046 1.277 1.106 2 2.638 1.985 1.044-.014 2.194-.538 2.732-1.29l-.768-.624c-.613.696-1.196 1.035-2.054 1.035-.937 0-1.442-.438-1.442-1.091 0-1.603 4.632-.78 4.632-3.53 0-1.433-1.35-2.157-2.792-2.157-1.242 0-2.454.497-3.19 1.404zM142.432 123.166c-2.531-.41-3.773-1.091-3.773-2.113 0-.68.704-1.134 1.319-1.134.797 0 1.81.54 2.454 1.22zm-4.648 1.97c.506.852 1.488 1.56 2.99 1.56 1.352 0 2.762-.595 2.762-2.211v-3.715c0-.808.077-1.206.184-1.588h-1.134l-.124 1.02c-.55-.566-1.441-1.162-2.639-1.162-1.227 0-2.269.68-2.269 2.028 0 1.617 1.335 2.425 4.878 3.005v.398c0 .978-.69 1.346-1.64 1.346-1.228 0-1.826-.652-2.042-1.148zM146.238 126.554v2.426h1.103v-2.426h1.842v-.877h-1.842v-5.249c0-.339.261-.51.906-.51.368 0 .69.029.983.072v-.837c-.201-.056-.645-.113-1.29-.113-1.197 0-1.702.284-1.702 1.22v5.417h-1.305v.877zM151.085 121.053c.522-.694 1.288-1.134 2.285-1.134 1.197 0 1.718.596 1.718 1.22 0 1.872-4.724.878-4.634 3.572.047 1.277 1.107 2 2.64 1.985 1.042-.014 2.194-.538 2.73-1.29l-.767-.624c-.612.696-1.197 1.035-2.054 1.035-.936 0-1.442-.438-1.442-1.091 0-1.603 4.632-.78 4.632-3.53 0-1.433-1.35-2.157-2.793-2.157-1.241 0-2.454.497-3.19 1.404zM159.2 126.554v-.992h.03c.629.653 1.456 1.135 2.36 1.135 1.183 0 2.303-.567 2.303-2.155v-5.36h-1.105v5.33c0 .979-.506 1.305-1.304 1.305-.828 0-1.78-.624-2.285-1.119v-5.516h-1.105v7.372zM166.915 119.182h1.104v7.372h-1.104zm0 9.4h1.104v1.22h-1.104zM172.147 126.554v-.992h.03c.63.653 1.457 1.135 2.362 1.135 1.182 0 2.302-.567 2.302-2.155v-5.36h-1.105v5.33c0 .979-.506 1.305-1.305 1.305-.827 0-1.778-.624-2.284-1.119v-5.516h-1.105v7.372zM181.904 125.817c-1.258 0-1.933-.736-1.933-1.7 0-.979.828-1.703 2.055-1.703 1.258 0 1.902.767 1.902 1.645 0 1.078-.675 1.758-2.024 1.758m-.047-6.324c-1.733 0-2.225-.709-2.225-1.234 0-.55.37-.92 2.578-.92 1.319 0 2.394.339 2.408 1.063-.014.723-.813 1.091-2.76 1.091m3.789 6.324c-.46 0-.952-.07-1.228-.198.23-.255.552-.822.552-1.502 0-1.461-1.304-2.582-2.915-2.582-.643 0-.981.086-1.41.199-.43-.113-.629-.354-.629-.68 0-.34.26-.54.66-.54 3.773 0 4.984-.623 4.984-2.069 0-1.078-1.15-1.986-3.635-1.986-2.24 0-3.436.569-3.436 1.787 0 .737.49 1.091 1.35 1.502-.614.17-.998.61-.998 1.05 0 .638.46.907 1.075 1.262-.752.524-1.089 1.249-1.089 2.057 0 1.56 1.319 2.58 3.021 2.58.86 0 1.458-.17 1.98-.51.475.311 1.12.594 1.718.652zM191.83 123.549c0 1.36-.707 2.269-1.903 2.269-1.335 0-2.057-.909-2.148-2.27zm1.349-2.794c-.522-.836-1.258-1.715-3.068-1.715-1.78 0-3.468 1.134-3.468 3.828 0 2.383 1.29 3.829 3.254 3.829 1.654 0 3.036-.992 3.036-3.347v-.68h-5.185c0-1.617 1.042-2.751 2.363-2.751.982 0 1.749.482 2.21 1.248zM196.247 126.554v-.992h.03c.63.653 1.457 1.135 2.362 1.135 1.182 0 2.302-.567 2.302-2.155v-5.36h-1.105v5.33c0 .979-.506 1.305-1.305 1.305-.827 0-1.778-.624-2.284-1.119v-5.516h-1.105v7.372z"
      fill="#231f20" />
    <path
      d="M130.626 147.71v10.237h2.117v-8.507h4.94v-1.73zM140.64 150.504c0-1.134.537-1.446 1.381-1.446s1.38.312 1.38 1.446v4.168c0 1.135-.536 1.447-1.38 1.447-.844 0-1.381-.312-1.381-1.447zm-2.117 4.154c0 2.523 1.443 3.431 3.498 3.431s3.497-.908 3.497-3.431v-3.659c0-2.523-1.442-3.43-3.497-3.43-2.055 0-3.498.907-3.498 3.43zM130.626 133.29v10.236h2.315l2.945-6.069h.032v6.07h1.929v-10.238h-2.022l-3.235 6.608h-.032v-6.608zM142.015 137.174h2.101l-1.028 4.14h-.03zm-3.022-3.885l2.744 10.237h2.716l2.67-10.237h-2.025l-.538 2.155h-2.929l-.599-2.155z"
      fill="#fff" />
  </g>
</svg>
